<mxfile host="app.diagrams.net" modified="2021-12-27T02:41:19.328Z" agent="5.0 (Windows NT 10.0; Win64; x64) AppleWebKit/537.36 (KHTML, like Gecko) Chrome/96.0.4664.110 Safari/537.36" etag="sr8Pz_LkcMc37kkdyD3g" version="16.1.0" type="github">
  <diagram id="C5RBs43oDa-KdzZeNtuy" name="Page-1">
    <mxGraphModel dx="865" dy="456" grid="1" gridSize="10" guides="1" tooltips="1" connect="1" arrows="1" fold="1" page="1" pageScale="1" pageWidth="827" pageHeight="1169" math="0" shadow="0">
      <root>
        <mxCell id="WIyWlLk6GJQsqaUBKTNV-0" />
        <mxCell id="WIyWlLk6GJQsqaUBKTNV-1" parent="WIyWlLk6GJQsqaUBKTNV-0" />
        <mxCell id="ZUMeXPWI-FWz46ealmUm-32" value="" style="rounded=0;whiteSpace=wrap;html=1;fillColor=#f5f5f5;fontColor=#333333;strokeColor=#666666;" vertex="1" parent="WIyWlLk6GJQsqaUBKTNV-1">
          <mxGeometry x="190" y="190" width="380" height="70" as="geometry" />
        </mxCell>
        <mxCell id="ZUMeXPWI-FWz46ealmUm-2" value="" style="endArrow=none;dashed=1;html=1;rounded=0;" edge="1" parent="WIyWlLk6GJQsqaUBKTNV-1">
          <mxGeometry width="50" height="50" relative="1" as="geometry">
            <mxPoint x="100" y="100" as="sourcePoint" />
            <mxPoint x="590" y="100" as="targetPoint" />
            <Array as="points">
              <mxPoint x="280" y="100" />
            </Array>
          </mxGeometry>
        </mxCell>
        <mxCell id="ZUMeXPWI-FWz46ealmUm-4" value="管理员" style="aspect=fixed;html=1;points=[];align=center;image;fontSize=12;image=img/lib/azure2/azure_stack/User_Subscriptions.svg;" vertex="1" parent="WIyWlLk6GJQsqaUBKTNV-1">
          <mxGeometry x="405.02" y="20" width="49.97" height="48.5" as="geometry" />
        </mxCell>
        <mxCell id="ZUMeXPWI-FWz46ealmUm-7" value="普通用户" style="aspect=fixed;perimeter=ellipsePerimeter;html=1;align=center;shadow=0;dashed=0;spacingTop=3;image;image=img/lib/active_directory/user_accounts.svg;" vertex="1" parent="WIyWlLk6GJQsqaUBKTNV-1">
          <mxGeometry x="305.5" y="20" width="50" height="48.5" as="geometry" />
        </mxCell>
        <mxCell id="ZUMeXPWI-FWz46ealmUm-8" value="用户层" style="text;html=1;resizable=0;autosize=1;align=center;verticalAlign=middle;points=[];fillColor=none;strokeColor=none;rounded=0;" vertex="1" parent="WIyWlLk6GJQsqaUBKTNV-1">
          <mxGeometry x="105" y="68.5" width="50" height="20" as="geometry" />
        </mxCell>
        <mxCell id="ZUMeXPWI-FWz46ealmUm-9" value="应用层" style="text;html=1;resizable=0;autosize=1;align=center;verticalAlign=middle;points=[];fillColor=none;strokeColor=none;rounded=0;" vertex="1" parent="WIyWlLk6GJQsqaUBKTNV-1">
          <mxGeometry x="105" y="130" width="50" height="20" as="geometry" />
        </mxCell>
        <mxCell id="ZUMeXPWI-FWz46ealmUm-10" value="支撑层" style="text;html=1;resizable=0;autosize=1;align=center;verticalAlign=middle;points=[];fillColor=none;strokeColor=none;rounded=0;" vertex="1" parent="WIyWlLk6GJQsqaUBKTNV-1">
          <mxGeometry x="105" y="210" width="50" height="20" as="geometry" />
        </mxCell>
        <mxCell id="ZUMeXPWI-FWz46ealmUm-11" value="数据层" style="text;html=1;resizable=0;autosize=1;align=center;verticalAlign=middle;points=[];fillColor=none;strokeColor=none;rounded=0;" vertex="1" parent="WIyWlLk6GJQsqaUBKTNV-1">
          <mxGeometry x="105" y="300" width="50" height="20" as="geometry" />
        </mxCell>
        <mxCell id="ZUMeXPWI-FWz46ealmUm-12" value="基础设施" style="text;html=1;resizable=0;autosize=1;align=center;verticalAlign=middle;points=[];fillColor=none;strokeColor=none;rounded=0;" vertex="1" parent="WIyWlLk6GJQsqaUBKTNV-1">
          <mxGeometry x="105" y="400" width="60" height="20" as="geometry" />
        </mxCell>
        <mxCell id="ZUMeXPWI-FWz46ealmUm-13" value="uacp库&lt;br&gt;用户、组织机构、权限" style="shape=datastore;whiteSpace=wrap;html=1;" vertex="1" parent="WIyWlLk6GJQsqaUBKTNV-1">
          <mxGeometry x="190" y="290" width="140" height="60" as="geometry" />
        </mxCell>
        <mxCell id="ZUMeXPWI-FWz46ealmUm-14" value="atplatform库&lt;br&gt;元数据、算法、模型、任务、监控" style="shape=datastore;whiteSpace=wrap;html=1;" vertex="1" parent="WIyWlLk6GJQsqaUBKTNV-1">
          <mxGeometry x="350" y="290" width="220" height="60" as="geometry" />
        </mxCell>
        <mxCell id="ZUMeXPWI-FWz46ealmUm-20" value="时空数据管理（tsdb）" style="rounded=0;whiteSpace=wrap;html=1;" vertex="1" parent="WIyWlLk6GJQsqaUBKTNV-1">
          <mxGeometry x="205" y="210" width="145" height="30" as="geometry" />
        </mxCell>
        <mxCell id="ZUMeXPWI-FWz46ealmUm-21" value="ATBuilder时空大数据基础平台" style="rounded=0;whiteSpace=wrap;html=1;" vertex="1" parent="WIyWlLk6GJQsqaUBKTNV-1">
          <mxGeometry x="365" y="210" width="190" height="30" as="geometry" />
        </mxCell>
        <mxCell id="ZUMeXPWI-FWz46ealmUm-22" value="创建任务" style="rounded=0;whiteSpace=wrap;html=1;" vertex="1" parent="WIyWlLk6GJQsqaUBKTNV-1">
          <mxGeometry x="190" y="125" width="80" height="30" as="geometry" />
        </mxCell>
        <mxCell id="ZUMeXPWI-FWz46ealmUm-23" value="任务监控" style="rounded=0;whiteSpace=wrap;html=1;" vertex="1" parent="WIyWlLk6GJQsqaUBKTNV-1">
          <mxGeometry x="288" y="125" width="85" height="30" as="geometry" />
        </mxCell>
        <mxCell id="ZUMeXPWI-FWz46ealmUm-24" value="任务统计" style="rounded=0;whiteSpace=wrap;html=1;" vertex="1" parent="WIyWlLk6GJQsqaUBKTNV-1">
          <mxGeometry x="390" y="125" width="80" height="30" as="geometry" />
        </mxCell>
        <mxCell id="ZUMeXPWI-FWz46ealmUm-25" value="系统管理" style="rounded=0;whiteSpace=wrap;html=1;" vertex="1" parent="WIyWlLk6GJQsqaUBKTNV-1">
          <mxGeometry x="490" y="125" width="80" height="30" as="geometry" />
        </mxCell>
        <mxCell id="ZUMeXPWI-FWz46ealmUm-28" value="硬件、网络设备" style="shape=process;whiteSpace=wrap;html=1;backgroundOutline=1;fillColor=#f5f5f5;fontColor=#333333;strokeColor=#666666;" vertex="1" parent="WIyWlLk6GJQsqaUBKTNV-1">
          <mxGeometry x="190" y="400" width="380" height="30" as="geometry" />
        </mxCell>
        <mxCell id="ZUMeXPWI-FWz46ealmUm-29" value="" style="endArrow=none;dashed=1;html=1;rounded=0;" edge="1" parent="WIyWlLk6GJQsqaUBKTNV-1">
          <mxGeometry width="50" height="50" relative="1" as="geometry">
            <mxPoint x="100" y="180" as="sourcePoint" />
            <mxPoint x="590" y="180" as="targetPoint" />
            <Array as="points">
              <mxPoint x="280" y="180" />
            </Array>
          </mxGeometry>
        </mxCell>
        <mxCell id="ZUMeXPWI-FWz46ealmUm-30" value="" style="endArrow=none;dashed=1;html=1;rounded=0;" edge="1" parent="WIyWlLk6GJQsqaUBKTNV-1">
          <mxGeometry width="50" height="50" relative="1" as="geometry">
            <mxPoint x="100" y="270" as="sourcePoint" />
            <mxPoint x="590" y="270" as="targetPoint" />
            <Array as="points">
              <mxPoint x="280" y="270" />
            </Array>
          </mxGeometry>
        </mxCell>
        <mxCell id="ZUMeXPWI-FWz46ealmUm-31" value="" style="endArrow=none;dashed=1;html=1;rounded=0;" edge="1" parent="WIyWlLk6GJQsqaUBKTNV-1">
          <mxGeometry width="50" height="50" relative="1" as="geometry">
            <mxPoint x="100" y="380" as="sourcePoint" />
            <mxPoint x="590" y="380" as="targetPoint" />
            <Array as="points">
              <mxPoint x="280" y="380" />
            </Array>
          </mxGeometry>
        </mxCell>
      </root>
    </mxGraphModel>
  </diagram>
</mxfile>
